<svg width="16" height="16" viewBox="0 0 26 14" fill="none" xmlns="http://www.w3.org/2000/svg">
<path d="M21.7779 1.53591C21.6139 1.53591 21.3689 1.20891 21.0419 0.962908C20.2239 0.389908 17.1968 0.389909 15.7239 4.07191C15.5599 4.48091 15.4789 4.48091 15.3969 4.07191C15.3149 1.69891 11.2248 0.799907 11.2248 4.64491C11.2248 8.40791 12.2069 8.81691 11.6339 10.6169C11.2248 12.0079 7.78885 14.2169 3.61585 12.6619C-0.14715 11.1889 0.997849 6.77191 3.53385 6.28091C4.02485 6.19891 4.18785 5.95391 3.53385 5.62691C3.101 5.46696 2.63106 5.43595 2.18095 5.53765C1.73084 5.63935 1.31988 5.86939 0.99785 6.19991C0.342268 6.91884 -0.014281 7.86083 0.000957336 8.83367C0.0161957 9.8065 0.402073 10.7369 1.07985 11.4349C4.02485 14.7889 10.7338 13.8079 14.1698 10.2079C17.6059 6.60791 18.2609 1.37191 20.8789 1.78091C22.5969 2.02591 22.3519 2.68091 23.2519 3.00791C24.1518 3.25291 25.7879 3.00791 24.8059 1.94391C23.9049 0.799909 22.1869 1.45391 21.7779 1.53591Z" fill="black"/>
</svg>
