<?xml version="1.0" encoding="utf-8"?>
<svg version="1.1" id="Lag_1" xmlns="http://www.w3.org/2000/svg" xmlns:xlink="http://www.w3.org/1999/xlink" x="0px" y="0px"
	 viewBox="0 0 217.7 87.7" style="enable-background:new 0 0 217.7 87.7;" xml:space="preserve">
<style type="text/css">
	.st0{fill:#FFFFFF;}
</style>
<g>
	<path class="st0" d="M51.4,54.4c-0.8-0.9-1.8-1.7-3-2.3c-1.2-0.7-2.4-1.3-3.8-1.9c-0.6-0.3-1.4-0.6-2.5-1c-1-0.4-1.9-0.7-2.6-1
		c-1.8-0.6-3.2-1.3-4.3-2.1c-1.2-0.8-1.8-2-1.8-3.5c0-1.7,0.7-3.2,2.1-4.2c1.3-1,3-1.5,5.1-1.5c2.9,0,5.2,0.8,6.6,2.4
		c1.4,1.6,2.3,3.8,2.9,6.6c0.2,0.3,1.1,0.2,1.3-0.1c0-0.6,0-4.4,0-5.4c0-1.1,0.3-4.4,0.5-4.9c-0.2-0.1-0.3-0.1-0.5-0.1
		c-0.1,0-0.1,0-0.2,0c-0.1,0-0.3,0-0.4,0c-0.2,0.1-0.1,0-0.1,0.1c-0.2,0.8-0.5,1.3-1.1,1.6C49.3,37,49.1,37,48.8,37
		c-0.2,0-0.4,0-0.5-0.1l0,0l0,0c-1.3-0.9-2.5-1.5-3.6-1.8s-2.3-0.5-3.8-0.5s-3,0.2-4.5,0.5c-1.5,0.4-2.9,0.9-4.1,1.7
		c-1.2,0.8-2.2,1.8-3,3s-1.2,2.7-1.2,4.6c0,1.6,0.3,2.9,0.7,3.9c0.5,1,1.2,1.9,2,2.6c0.8,0.7,1.8,1.3,2.9,1.8c1.1,0.5,2.3,1,3.4,1.4
		c0.8,0.3,1.6,0.6,2.3,0.9c0.8,0.3,1.5,0.6,2.3,0.9c1.6,0.7,3,1.6,4.2,2.6c1.3,1,1.9,2.5,1.9,4.3c0,2-0.6,3.6-1.9,4.7
		c-1.3,1.1-2.9,1.7-4.9,1.7c-1.8,0-3.3-0.2-4.6-0.6s-2.4-1-3.3-1.9c-0.9-0.8-1.7-1.8-2.3-3c-0.6-1.2-1.1-2.6-1.4-4.1
		c0-0.1,0-0.1-0.2-0.1c-0.1,0-0.3-0.1-0.4-0.1h-0.1c-0.2,0-0.4,0.1-0.6,0.2c-0.1,0.1-0.1,0-0.1,0.1c0,0.2,0.3,3.9,0.3,5.6
		c0,1.7,0,5.3,0,5.6l0,0c0.2,0.1,0.3,0.1,0.5,0.1s0.4,0,0.7-0.1l0,0c0.1-0.6,0.4-1.1,0.9-1.4c0.3-0.2,0.6-0.3,0.9-0.3
		c0.2,0,0.3,0,0.5,0.1l0,0l0,0c1.2,0.6,2.6,1,4.3,1.3s3.1,0.5,4.5,0.5c1.6,0,3.2-0.2,4.9-0.5c1.6-0.4,3.1-0.9,4.3-1.7
		c1.3-0.8,2.3-1.8,3.1-3.1c0.8-1.3,1.2-2.8,1.2-4.8c0-1.5-0.2-2.7-0.7-3.8C52.9,56.3,52.2,55.3,51.4,54.4z"/>
	<path class="st0" d="M74.3,69.4c-1.2-0.2-2.2-0.4-2.9-0.7c-0.7-0.3-1.3-0.9-1.6-1.5c-0.4-0.7-0.5-1.4-0.6-2.4
		c-0.1-0.9-0.1-2-0.1-3.3l0,0V36.2c0-0.2-0.1-0.5-0.2-0.8c-0.1-0.2-0.3-0.4-0.8-0.3c-0.3,0-1.5,0.4-2.1,0.5
		c-0.7,0.2-1.5,0.3-2.3,0.4c-0.9,0.1-1.7,0.2-2.6,0.3c-0.8,0.1-1.6,0.1-2.4,0.2c-0.8,0.1-1.4,0.1-1.9,0.2l0,0l0,0
		c-0.2,0-0.2,0-0.3,0.2s-0.2,0.4-0.2,0.6c0,0.2,0.1,0.4,0.2,0.6c0.1,0.1,0.1,0.2,0.3,0.2l0,0l0,0c1.3,0.2,2.3,0.4,3.1,0.7
		s1.5,0.9,1.9,1.7s0.6,1.9,0.8,3.3c0.1,1.4,0.2,3.2,0.2,5.5v12.6c0,1.2,0,2.2-0.1,3.1s-0.3,1.6-0.7,2.2s-1,1.1-1.9,1.5
		c-0.8,0.3-1.9,0.6-3.3,0.7c-0.2,0-0.3,0.1-0.4,0.2c-0.1,0.2-0.2,0.3-0.2,0.6c0,0.2,0,0.3,0.2,0.5c0.1,0.1,0.1,0.2,0.3,0.2
		c1.4,0,7.7-0.3,9.4-0.3c1.6,0,7.5,0.3,8.4,0.3c0.2,0,0.3,0,0.3-0.2c0.1-0.2,0.2-0.3,0.2-0.5s-0.1-0.4-0.2-0.6
		C74.6,69.5,74.5,69.5,74.3,69.4z"/>
	<path class="st0" d="M69.1,27.4c0-1.1-0.4-2.1-1.1-2.9s-1.6-1.2-2.8-1.2c-1.2,0-2.2,0.4-3,1.2c-0.8,0.8-1.2,1.7-1.2,2.8
		c0,1.1,0.4,2,1.3,2.7c0.9,0.8,1.9,1.1,3.1,1.1c1.1,0,2-0.4,2.7-1.1C68.7,29.3,69,28.5,69.1,27.4z"/>
	<path class="st0" d="M119.2,69.4c-1.1-0.2-2-0.4-2.7-0.7c-0.7-0.3-1.2-0.8-1.5-1.4s-0.5-1.4-0.6-2.3s-0.1-2.1-0.1-3.5V48
		c0-4.8-1.1-8.2-3.2-10.3s-5.1-3.1-8.9-3.1c-1.4,0-2.6,0.2-3.7,0.6c-1.1,0.4-2.1,0.9-3,1.5s-1.7,1.3-2.3,1.9
		c-0.6,0.7-1.1,1.3-1.5,1.8c-0.1,0.1-0.2,0.3-0.5,0.3c-0.1,0-0.1,0-0.2,0c-0.3-0.1-0.4-0.4-0.4-0.6v-3.4c0-0.5-0.2-1-0.5-1.4
		C89.9,35,89.7,35,89.4,35c-0.1,0-0.3,0-0.5,0.1c-2,0.6-4,1.3-5.9,1.6s-3.4,0.5-4.4,0.5c-0.2,0-0.3,0.1-0.4,0.2
		c-0.1,0.1-0.2,0.3-0.2,0.5s0,0.3,0.2,0.4c0.1,0.1,0.2,0.2,0.4,0.2c1.3,0,2.3,0.2,3.1,0.6c0.8,0.5,1.4,1.3,1.7,2.3
		c0.3,1.1,0.5,2.4,0.6,4.2c0.1,1.7,0.1,3.8,0.1,6.4v9.9c0,1.3,0,2.4-0.1,3.2c-0.1,0.9-0.3,1.6-0.7,2.3c-0.4,0.6-1,1.1-1.8,1.3
		c-0.8,0.3-1.8,0.5-3.1,0.6c-0.2,0-0.3,0.1-0.4,0.2c-0.1,0.2-0.2,0.3-0.2,0.6c0,0.2,0,0.3,0.2,0.5c0.1,0.1,0.1,0.2,0.3,0.2
		c1.3,0,7.3-0.3,9-0.3c1.6,0,7.3,0.3,7.7,0.3c0.2,0,0.3,0,0.3-0.2c0.1-0.2,0.2-0.3,0.2-0.5s-0.1-0.4-0.2-0.6
		c-0.1-0.1-0.2-0.2-0.4-0.2c-1-0.2-1.8-0.4-2.5-0.8c-0.6-0.4-1.1-0.9-1.4-1.5s-0.4-1.4-0.5-2.3s-0.1-2-0.1-3.3V48.2
		c0-1.3,0.2-2.5,0.7-3.7c0.4-1.2,1.1-2.2,1.9-3.1c0.9-0.9,1.9-1.6,3.1-2.1s2.7-0.8,4.3-0.8c1.6,0,3,0.4,4,1.1
		c0.9,0.7,1.7,1.6,2.2,2.8c0.5,1.1,0.8,2.3,0.9,3.7c0.1,1.3,0.2,2.6,0.2,4V62c0,1.2,0,2.2-0.1,3.1s-0.2,1.6-0.6,2.2
		c-0.3,0.6-0.8,1.1-1.5,1.5s-1.6,0.6-2.8,0.7c-0.2,0-0.3,0.1-0.4,0.2c-0.1,0.2-0.2,0.3-0.2,0.6c0,0.2,0,0.3,0.2,0.5
		c0.1,0.1,0.1,0.2,0.3,0.2c1,0,6.9-0.3,8.6-0.3c1.6,0,7.4,0.3,8,0.3c0.2,0,0.3,0,0.3-0.2c0.1-0.2,0.2-0.3,0.2-0.5s-0.1-0.4-0.2-0.6
		C119.5,69.5,119.4,69.5,119.2,69.4z"/>
	<path class="st0" d="M136.2,34.2v-1.5c0-1.4,0-2.9,0.1-4.5s0.4-3.2,0.9-4.6s1.4-2.6,2.6-3.6c1.2-1,2.9-1.4,5-1.4
		c1.4,0,2.6,0.3,3.6,0.8c1,0.6,1.6,1.6,1.5,2.7c0,0.5-0.2,0.9-0.5,1.2c-0.1,0-0.2,0.5-0.2,1.2c0,0.8,0.3,1.3,0.9,1.6
		c0.6,0.4,1.3,0.6,2.2,0.6c1,0,1.7-0.3,2.4-0.9s1-1.3,1-2.1c0-1.4-0.3-2.5-0.9-3.3c-0.6-0.9-1.4-1.6-2.3-2.2c-1-0.6-2.1-1-3.3-1.2
		c-1.3-0.3-2.5-0.4-3.8-0.4c-2.5,0-4.7,0.4-6.7,1.2c-1.9,0.8-3.6,1.9-4.9,3.3c-1.3,1.4-2.3,3-3,5c-0.7,1.9-1,4-1,6.3
		c0,0.8,0,1.4,0,1.9c0,0.4,0,0.8-0.2,1.1c-0.1,0.2-0.3,0.5-0.5,0.6s-0.4,0.1-0.7,0.1l-4.2,0.4c-0.2,0-0.3,0.1-0.4,0.3
		s-0.2,0.5-0.2,0.8c0,0.2,0.1,0.5,0.2,0.7s0.1,0.2,0.3,0.2h3.9c0.4,0,0.6,0,0.9,0.1c0.2,0.1,0.4,0.1,0.6,0.3
		c0.2,0.2,0.2,0.4,0.2,0.6c0,0.2,0,0.5,0,0.9v21.5c0,1.3,0,2.4-0.1,3.3s-0.3,1.6-0.7,2.2s-1.1,1.1-1.9,1.4s-1.9,0.5-3.4,0.7
		c-0.3,0-0.4,0.1-0.5,0.2c-0.1,0.2-0.2,0.3-0.2,0.6c0,0.2,0,0.3,0.2,0.5c0.1,0.1,0.1,0.2,0.3,0.2c1.6,0,8.2-0.3,9.9-0.3
		c1.6,0,8.4,0.3,10.4,0.3c0.1,0,0.2,0,0.3-0.2s0.2-0.3,0.2-0.5s-0.1-0.4-0.2-0.6c-0.1-0.1-0.2-0.2-0.4-0.2c-1.7-0.2-3.1-0.5-4.1-0.8
		s-1.8-0.8-2.3-1.4s-0.8-1.4-0.9-2.3c-0.1-0.9-0.2-2-0.2-3.3V40.4L136.2,34.2L136.2,34.2z"/>
	<path class="st0" d="M186,68.1c-1.4,0-2.6-0.1-3.4-0.5c-0.9-0.3-1.6-0.9-2-1.8c-0.4-0.8-0.7-1.9-0.8-3.3c-0.1-1.3-0.1-3.1-0.1-5.2
		V36.6c0-0.2-0.1-0.8-0.3-1.2c-0.1-0.2-0.2-0.2-0.5-0.2c-0.1,0-0.3,0-0.5,0.1c-1.9,0.6-3.7,1.1-5.3,1.4c-1.6,0.4-3.4,0.8-5.3,0.9
		c-0.2,0-0.2,0-0.3,0.1s-0.1,0.3-0.1,0.4v0.1c0,0.2,0.1,0.4,0.2,0.6c0.1,0.1,0.1,0.2,0.3,0.2c1.3,0.2,2.2,0.3,2.9,0.6
		c0.8,0.2,1.4,0.8,1.7,1.5c0.4,0.7,0.5,1.7,0.6,3s0.1,3,0.1,5.3v12.4c0,0.2,0,0.5,0,1s-0.1,0.8-0.4,1.2c-1.1,1-2.6,1.7-4.6,2.4
		c-2,0.6-3.9,1-5.7,1c-1.3,0-2.4-0.2-3.3-0.7c-0.9-0.5-1.7-1.2-2.2-2.2s-0.8-2.3-1-3.8s-0.3-3.3-0.3-5.4V36.6c0-0.2-0.1-0.8-0.3-1.3
		c-0.1-0.2-0.2-0.2-0.5-0.2c-0.1,0-0.3,0-0.5,0.1c-1,0.3-5.2,1.2-6.2,1.4s-4.4,0.8-4.9,0.9l0,0l0,0c-0.2,0-0.2,0-0.3,0.2
		s-0.1,0.3-0.1,0.5v0.1c0,0.2,0.1,0.4,0.2,0.6c0.1,0.2,0.1,0.1,0.2,0.2l0,0l0,0c1.3,0.2,2.3,0.3,3.1,0.6c0.8,0.2,1.5,0.7,1.9,1.5
		c0.4,0.7,0.7,1.7,0.8,3s0.2,3,0.2,5.3v8.9c0,2.1,0.2,4,0.5,5.7c0.4,1.7,1,3,1.8,4.1s2,1.9,3.5,2.5s3.4,0.9,5.8,0.9
		c1.8,0,3.6-0.3,5.6-1c1.9-0.6,3.8-1.8,5.7-3.4c0.1-0.1,0.3-0.3,0.6-0.3c0.1,0,0.1,0,0.2,0c0.2,0,0.5,0.4,0.5,0.6
		c0,1.4,0.1,2.5,0.3,3.2s0.4,0.8,0.6,0.8c0.1,0,0.6,0,1.3-0.2c0.7-0.1,1.4-0.2,2.2-0.4c0.8-0.2,1.6-0.3,2.3-0.5
		c0.8-0.2,1.4-0.3,1.8-0.3c0.5-0.1,0.9-0.1,1.3-0.2c0.3-0.1,0.7-0.1,1-0.1s0.6-0.1,0.9-0.1c0.3,0,0.7,0,1.1,0c0.1,0,0.1,0,0.1-0.1
		c0.1-0.2,0.1-0.4,0.1-0.6c0-0.3-0.1-0.5-0.1-0.6C186,68.1,186,68.1,186,68.1z"/>
	<path class="st0" d="M208.4,69.4c-1.4-0.2-2.5-0.4-3.3-0.7c-0.8-0.3-1.5-0.8-1.9-1.5s-0.6-1.5-0.6-2.4c-0.1-0.9-0.1-2-0.1-3.3V17.4
		c0-0.2-0.1-0.4-0.3-0.7c0,0-0.1-0.1-0.3-0.1s-0.4,0-0.7,0.1c-2,0.6-4.1,1-6.3,1.2s-4.1,0.4-5.7,0.5l0,0l0,0c-0.2,0-0.2,0-0.3,0.2
		s-0.1,0.3-0.1,0.5v0.1c0,0.2,0.1,0.4,0.2,0.6c0.1,0.2,0.1,0.1,0.2,0.2l0,0l0,0c1.5,0.2,2.7,0.4,3.7,0.6c1,0.3,1.7,0.9,2.2,1.7
		c0.5,0.8,0.7,1.9,0.8,3.3s0.2,3.3,0.2,5.5V62c0,1.2,0,2.2-0.1,3.1s-0.3,1.6-0.7,2.3c-0.4,0.6-1.1,1.1-2,1.5c-0.9,0.3-2,0.6-3.5,0.7
		c-0.2,0-0.3,0.1-0.4,0.2c-0.1,0.2-0.2,0.3-0.2,0.6c0,0.2,0,0.3,0.2,0.5c0.1,0.1,0.1,0.2,0.3,0.2c1.7,0,8.1-0.3,9.8-0.3
		c1.6,0,7.9,0.3,9.1,0.3c0.2,0,0.3,0,0.3-0.2c0.1-0.2,0.2-0.3,0.2-0.5s-0.1-0.4-0.2-0.6C208.7,69.5,208.6,69.5,208.4,69.4z"/>
</g>
<path class="st0" d="M33,30.7c-0.2,0-0.5-0.4-0.9-0.7c-1-0.7-4.7-0.7-6.5,3.8c-0.2,0.5-0.3,0.5-0.4,0c-0.1-2.9-5.1-4-5.1,0.7
	c0,4.6,1.2,5.1,0.5,7.3c-0.5,1.7-4.7,4.4-9.8,2.5c-4.6-1.8-3.2-7.2-0.1-7.8c0.6-0.1,0.8-0.4,0-0.8c-0.8-0.4-2.2-0.2-3.1,0.7
	c-1,1-2.2,3.8,0.1,6.4c3.6,4.1,11.8,2.9,16-1.5s5-10.8,8.2-10.3c2.1,0.3,1.8,1.1,2.9,1.5c1.1,0.3,3.1,0,1.9-1.3
	C35.6,29.8,33.5,30.6,33,30.7z"/>
</svg>
